<svg width="30" height="31" viewBox="0 0 30 31" fill="none" xmlns="http://www.w3.org/2000/svg">
<path d="M27.4625 23.4125C27.4625 23.8625 27.3625 24.325 27.15 24.775C26.9375 25.225 26.6625 25.65 26.3 26.05C25.6875 26.725 25.0125 27.2125 24.25 27.525C23.5 27.8375 22.6875 28 21.8125 28C20.5375 28 19.175 27.7 17.7375 27.0875C16.3 26.475 14.8625 25.65 13.4375 24.6125C12 23.5625 10.6375 22.4 9.3375 21.1125C8.05 19.8125 6.8875 18.45 5.85 17.025C4.825 15.6 4 14.175 3.4 12.7625C2.8 11.3375 2.5 9.975 2.5 8.675C2.5 7.825 2.65 7.0125 2.95 6.2625C3.25 5.5 3.725 4.8 4.3875 4.175C5.1875 3.3875 6.0625 3 6.9875 3C7.3375 3 7.6875 3.075 8 3.225C8.325 3.375 8.6125 3.6 8.8375 3.925L11.7375 8.0125C11.9625 8.325 12.125 8.6125 12.2375 8.8875C12.35 9.15 12.4125 9.4125 12.4125 9.65C12.4125 9.95 12.325 10.25 12.15 10.5375C11.9875 10.825 11.75 11.125 11.45 11.425L10.5 12.4125C10.3625 12.55 10.3 12.7125 10.3 12.9125C10.3 13.0125 10.3125 13.1 10.3375 13.2C10.375 13.3 10.4125 13.375 10.4375 13.45C10.6625 13.8625 11.05 14.4 11.6 15.05C12.1625 15.7 12.7625 16.3625 13.4125 17.025C14.0875 17.6875 14.7375 18.3 15.4 18.8625C16.05 19.4125 16.5875 19.7875 17.0125 20.0125C17.075 20.0375 17.15 20.075 17.2375 20.1125C17.3375 20.15 17.4375 20.1625 17.55 20.1625C17.7625 20.1625 17.925 20.0875 18.0625 19.95L19.0125 19.0125C19.325 18.7 19.625 18.4625 19.9125 18.3125C20.2 18.1375 20.4875 18.05 20.8 18.05C21.0375 18.05 21.2875 18.1 21.5625 18.2125C21.8375 18.325 22.125 18.4875 22.4375 18.7L26.575 21.6375C26.9 21.8625 27.125 22.125 27.2625 22.4375C27.3875 22.75 27.4625 23.0625 27.4625 23.4125Z" stroke="#BA9375" stroke-width="1.5" stroke-miterlimit="10"/>
</svg>
