<svg width="48" height="48" viewBox="0 0 48 48" fill="none" xmlns="http://www.w3.org/2000/svg">
<path d="M28.5943 23.6251C27.8443 23.3431 27.8443 22.2661 27.7978 21.5161C27.6103 18.8446 28.5478 14.7661 27.4228 13.0321C26.6263 12.0001 22.7818 12.0946 20.4388 12.2356C19.7818 12.3301 18.9853 12.4696 18.4228 12.7516C17.8603 13.0336 17.2978 13.5016 17.2978 13.9231C17.2978 14.5321 18.7048 14.4391 19.2193 15.2356C19.7818 16.0801 19.7818 17.9071 19.7818 19.4071C19.7818 21.1411 19.4998 23.4391 18.7978 23.5321C17.7193 23.5786 17.1103 22.5001 16.5478 21.7036C15.4228 20.1571 14.2978 18.2341 13.4533 16.3591C13.0318 15.3751 12.7963 14.2966 12.1873 13.8751C11.2498 13.2181 9.56233 13.1716 7.92133 13.2181C6.42133 13.2646 4.26433 13.0771 3.84283 13.9681C3.51433 14.9521 4.21783 15.8896 4.59283 16.6876C6.51433 20.8591 8.57683 24.5161 11.1088 27.9841C13.4533 31.2181 15.6553 33.7966 19.9678 35.1556C21.1873 35.5306 26.5303 36.6091 27.6088 35.1556C27.9838 34.5931 27.8908 33.3271 28.0783 32.3896C28.2658 31.4521 28.4998 30.5146 29.3908 30.4681C30.1408 30.4216 30.5623 31.0771 31.0318 31.5466C31.5478 32.0626 31.9693 32.4841 32.3443 32.9536C33.2353 33.8446 34.1728 35.0626 35.2978 35.5321C36.8443 36.1891 39.2353 36.0016 41.4853 35.9071C43.3138 35.8606 44.6263 35.4856 44.7673 34.4071C44.8618 33.5626 43.9228 32.3446 43.3603 31.6411C41.9533 29.9071 41.2978 29.3911 39.7033 27.7966C38.9998 27.0931 38.1088 26.3431 38.1088 25.5001C38.0623 24.9841 38.4838 24.5161 38.8588 24.0001C40.4998 21.5626 42.1408 19.8286 43.6408 17.2966C44.0623 16.5466 45.0478 14.8126 44.6728 13.9681C44.2513 13.0306 41.9068 13.3111 40.4533 13.3111C38.5783 13.3111 36.1408 13.1701 35.6713 13.5451C34.7803 14.1541 34.4053 15.1396 33.9838 16.0771C33.0463 18.2341 31.7803 20.4361 30.4678 22.0771C29.9983 22.6396 29.1088 23.8111 28.5928 23.6236L28.5943 23.6251Z" fill="white"/>
</svg>
