<svg width="25" height="24" viewBox="0 0 25 24" fill="none" xmlns="http://www.w3.org/2000/svg">
<path d="M12.5001 7.89001L11.4301 9.75001C11.1901 10.16 11.3901 10.5 11.8601 10.5H13.1301C13.6101 10.5 13.8001 10.84 13.5601 11.25L12.5001 13.11" stroke="#BA9375" stroke-width="1.5" stroke-linecap="round" stroke-linejoin="round"/>
<path d="M8.79986 18.04V16.88C6.49986 15.49 4.60986 12.78 4.60986 9.89999C4.60986 4.94999 9.15986 1.06999 14.2999 2.18999C16.5599 2.68999 18.5399 4.18999 19.5699 6.25999C21.6599 10.46 19.4599 14.92 16.2299 16.87V18.03C16.2299 18.32 16.3399 18.99 15.2699 18.99H9.75986C8.65986 19 8.79986 18.57 8.79986 18.04Z" stroke="#BA9375" stroke-width="1.5" stroke-linecap="round" stroke-linejoin="round"/>
<path d="M9 22C11.29 21.35 13.71 21.35 16 22" stroke="#BA9375" stroke-width="1.5" stroke-linecap="round" stroke-linejoin="round"/>
</svg>
