<svg width="41" height="40" viewBox="0 0 41 40" fill="none" xmlns="http://www.w3.org/2000/svg">
<path d="M13.6667 36.6667H27C33.7 36.6667 34.9 33.9833 35.25 30.7167L36.5 17.3833C36.95 13.3167 35.7834 10 28.6667 10H12C4.88337 10 3.7167 13.3167 4.1667 17.3833L5.4167 30.7167C5.7667 33.9833 6.9667 36.6667 13.6667 36.6667Z" stroke="#BA9375" stroke-width="2" stroke-miterlimit="10" stroke-linecap="round" stroke-linejoin="round"/>
<path d="M13.667 9.99992V8.66658C13.667 5.71658 13.667 3.33325 19.0003 3.33325H21.667C27.0003 3.33325 27.0003 5.71658 27.0003 8.66658V9.99992" stroke="#BA9375" stroke-width="2" stroke-miterlimit="10" stroke-linecap="round" stroke-linejoin="round"/>
<path d="M23.6667 21.6667V23.3333C23.6667 23.35 23.6667 23.35 23.6667 23.3667C23.6667 25.1833 23.65 26.6667 20.3333 26.6667C17.0333 26.6667 17 25.2 17 23.3833V21.6667C17 20 17 20 18.6667 20H22C23.6667 20 23.6667 20 23.6667 21.6667Z" stroke="#BA9375" stroke-width="2" stroke-miterlimit="10" stroke-linecap="round" stroke-linejoin="round"/>
<path d="M36.417 18.3333C32.567 21.1333 28.167 22.7999 23.667 23.3666" stroke="#BA9375" stroke-width="2" stroke-miterlimit="10" stroke-linecap="round" stroke-linejoin="round"/>
<path d="M4.7002 18.7834C8.4502 21.3501 12.6835 22.9001 17.0002 23.3834" stroke="#BA9375" stroke-width="2" stroke-miterlimit="10" stroke-linecap="round" stroke-linejoin="round"/>
</svg>
