<svg width="41" height="40" viewBox="0 0 41 40" fill="none" xmlns="http://www.w3.org/2000/svg">
<path d="M37.3333 27.8999V7.78324C37.3333 5.78324 35.7 4.29991 33.7167 4.46657H33.6167C30.1167 4.76657 24.8 6.54991 21.8333 8.41657L21.55 8.59991C21.0667 8.89991 20.2667 8.89991 19.7833 8.59991L19.3667 8.34991C16.4 6.49991 11.1 4.73324 7.6 4.44991C5.61667 4.28324 4 5.78324 4 7.76657V27.8999C4 29.4999 5.3 30.9999 6.9 31.1999L7.38333 31.2666C11 31.7499 16.5833 33.5832 19.7833 35.3332L19.85 35.3666C20.3 35.6166 21.0167 35.6166 21.45 35.3666C24.65 33.5999 30.25 31.7499 33.8833 31.2666L34.4333 31.1999C36.0333 30.9999 37.3333 29.4999 37.3333 27.8999Z" stroke="#BA9475" stroke-width="2" stroke-linecap="round" stroke-linejoin="round"/>
<path d="M20.6665 9.1499V34.1499" stroke="#BA9475" stroke-width="2" stroke-linecap="round" stroke-linejoin="round"/>
<path d="M13.583 14.1499H9.83301" stroke="#BA9475" stroke-width="2" stroke-linecap="round" stroke-linejoin="round"/>
<path d="M14.833 19.1499H9.83301" stroke="#BA9475" stroke-width="2" stroke-linecap="round" stroke-linejoin="round"/>
</svg>
