<svg width="41" height="40" viewBox="0 0 41 40" fill="none" xmlns="http://www.w3.org/2000/svg">
<path d="M13.667 3.33325V8.33325" stroke="#BA9375" stroke-width="2" stroke-miterlimit="10" stroke-linecap="round" stroke-linejoin="round"/>
<path d="M27 3.33325V8.33325" stroke="#BA9375" stroke-width="2" stroke-miterlimit="10" stroke-linecap="round" stroke-linejoin="round"/>
<path d="M6.16699 15.1501H34.5003" stroke="#BA9375" stroke-width="2" stroke-miterlimit="10" stroke-linecap="round" stroke-linejoin="round"/>
<path d="M37.0003 31.6667C37.0003 32.9167 36.6503 34.1 36.0337 35.1C34.8837 37.0333 32.767 38.3333 30.3337 38.3333C28.6503 38.3333 27.117 37.7167 25.9503 36.6667C25.4337 36.2333 24.9837 35.7 24.6337 35.1C24.017 34.1 23.667 32.9167 23.667 31.6667C23.667 27.9833 26.6503 25 30.3337 25C32.3337 25 34.117 25.8833 35.3337 27.2666C36.367 28.45 37.0003 29.9833 37.0003 31.6667Z" stroke="#BA9375" stroke-width="2" stroke-miterlimit="10" stroke-linecap="round" stroke-linejoin="round"/>
<path d="M27.7339 31.6668L29.3839 33.3168L32.9339 30.0334" stroke="#BA9375" stroke-width="2" stroke-linecap="round" stroke-linejoin="round"/>
<path d="M35.3335 14.1666V27.2666C34.1168 25.8832 32.3335 24.9999 30.3335 24.9999C26.6502 24.9999 23.6668 27.9833 23.6668 31.6666C23.6668 32.9166 24.0168 34.0999 24.6335 35.0999C24.9835 35.6999 25.4335 36.2333 25.9502 36.6666H13.6668C7.8335 36.6666 5.3335 33.3333 5.3335 28.3333V14.1666C5.3335 9.16659 7.8335 5.83325 13.6668 5.83325H27.0002C32.8335 5.83325 35.3335 9.16659 35.3335 14.1666Z" stroke="#BA9375" stroke-width="2" stroke-miterlimit="10" stroke-linecap="round" stroke-linejoin="round"/>
<path d="M20.3261 22.8333H20.3411" stroke="#BA9375" stroke-width="3" stroke-linecap="round" stroke-linejoin="round"/>
<path d="M14.1572 22.8333H14.1722" stroke="#BA9375" stroke-width="3" stroke-linecap="round" stroke-linejoin="round"/>
<path d="M14.1572 27.8333H14.1722" stroke="#BA9375" stroke-width="3" stroke-linecap="round" stroke-linejoin="round"/>
</svg>
