<svg width="41" height="40" viewBox="0 0 41 40" fill="none" xmlns="http://www.w3.org/2000/svg">
<path d="M33.9998 23.3334C35.8408 23.3334 37.3332 21.841 37.3332 20.0001C37.3332 18.1591 35.8408 16.6667 33.9998 16.6667C32.1589 16.6667 30.6665 18.1591 30.6665 20.0001C30.6665 21.841 32.1589 23.3334 33.9998 23.3334Z" stroke="#BA9375" stroke-width="2" stroke-linecap="round" stroke-linejoin="round"/>
<path d="M33.9998 9.99992C35.8408 9.99992 37.3332 8.50753 37.3332 6.66659C37.3332 4.82564 35.8408 3.33325 33.9998 3.33325C32.1589 3.33325 30.6665 4.82564 30.6665 6.66659C30.6665 8.50753 32.1589 9.99992 33.9998 9.99992Z" stroke="#BA9375" stroke-width="2" stroke-linecap="round" stroke-linejoin="round"/>
<path d="M33.9998 36.6667C35.8408 36.6667 37.3332 35.1743 37.3332 33.3333C37.3332 31.4924 35.8408 30 33.9998 30C32.1589 30 30.6665 31.4924 30.6665 33.3333C30.6665 35.1743 32.1589 36.6667 33.9998 36.6667Z" stroke="#BA9375" stroke-width="2" stroke-linecap="round" stroke-linejoin="round"/>
<path d="M7.33333 23.3334C9.17428 23.3334 10.6667 21.841 10.6667 20.0001C10.6667 18.1591 9.17428 16.6667 7.33333 16.6667C5.49238 16.6667 4 18.1591 4 20.0001C4 21.841 5.49238 23.3334 7.33333 23.3334Z" stroke="#BA9375" stroke-width="2" stroke-linecap="round" stroke-linejoin="round"/>
<path d="M10.6665 20H30.6665" stroke="#BA9375" stroke-width="2" stroke-linecap="round" stroke-linejoin="round"/>
<path d="M30.6667 6.66675H24C20.6667 6.66675 19 8.33341 19 11.6667V28.3334C19 31.6667 20.6667 33.3334 24 33.3334H30.6667" stroke="#BA9375" stroke-width="2" stroke-linecap="round" stroke-linejoin="round"/>
</svg>
