<svg width="40" height="40" viewBox="0 0 40 40" fill="none" xmlns="http://www.w3.org/2000/svg">
<path d="M6.9499 25.5001L14.4999 33.0501C17.5999 36.1501 22.6332 36.1501 25.7499 33.0501L33.0666 25.7334C36.1666 22.6334 36.1666 17.6001 33.0666 14.4834L25.4999 6.95008C23.9166 5.36675 21.7332 4.51675 19.4999 4.63341L11.1666 5.03341C7.83324 5.18341 5.18324 7.83341 5.01657 11.1501L4.61657 19.4834C4.51657 21.7334 5.36657 23.9167 6.9499 25.5001Z" stroke="#BA9375" stroke-width="2" stroke-linecap="round" stroke-linejoin="round"/>
<path d="M15.8332 20.0001C18.1344 20.0001 19.9998 18.1346 19.9998 15.8334C19.9998 13.5322 18.1344 11.6667 15.8332 11.6667C13.532 11.6667 11.6665 13.5322 11.6665 15.8334C11.6665 18.1346 13.532 20.0001 15.8332 20.0001Z" stroke="#BA9375" stroke-width="2" stroke-linecap="round"/>
</svg>
