<svg width="40" height="40" viewBox="0 0 40 40" fill="none" xmlns="http://www.w3.org/2000/svg">
<path d="M30 11.9333C29.9 11.9166 29.7834 11.9166 29.6834 11.9333C27.3834 11.8499 25.55 9.96659 25.55 7.63325C25.55 5.24992 27.4667 3.33325 29.85 3.33325C32.2334 3.33325 34.15 5.26659 34.15 7.63325C34.1334 9.96659 32.3 11.8499 30 11.9333Z" stroke="#BA9375" stroke-width="2" stroke-linecap="round" stroke-linejoin="round"/>
<path d="M28.2834 24.0666C30.5667 24.4499 33.0834 24.0499 34.8501 22.8666C37.2001 21.2999 37.2001 18.7333 34.8501 17.1666C33.0667 15.9833 30.5167 15.5833 28.2334 15.9833" stroke="#BA9375" stroke-width="2" stroke-linecap="round" stroke-linejoin="round"/>
<path d="M9.94981 11.9333C10.0498 11.9166 10.1665 11.9166 10.2665 11.9333C12.5665 11.8499 14.3998 9.96659 14.3998 7.63325C14.3998 5.24992 12.4831 3.33325 10.0998 3.33325C7.71647 3.33325 5.7998 5.26659 5.7998 7.63325C5.81647 9.96659 7.64981 11.8499 9.94981 11.9333Z" stroke="#BA9375" stroke-width="2" stroke-linecap="round" stroke-linejoin="round"/>
<path d="M11.6666 24.0666C9.38323 24.4499 6.86657 24.0499 5.0999 22.8666C2.7499 21.2999 2.7499 18.7333 5.0999 17.1666C6.88324 15.9833 9.43323 15.5833 11.7166 15.9833" stroke="#BA9375" stroke-width="2" stroke-linecap="round" stroke-linejoin="round"/>
<path d="M20 24.3832C19.9 24.3665 19.7834 24.3665 19.6834 24.3832C17.3834 24.2999 15.55 22.4165 15.55 20.0832C15.55 17.6999 17.4667 15.7832 19.85 15.7832C22.2334 15.7832 24.15 17.7165 24.15 20.0832C24.1334 22.4165 22.3 24.3165 20 24.3832Z" stroke="#BA9375" stroke-width="2" stroke-linecap="round" stroke-linejoin="round"/>
<path d="M15.15 29.6331C12.8 31.1998 12.8 33.7664 15.15 35.3331C17.8166 37.1164 22.1833 37.1164 24.85 35.3331C27.2 33.7664 27.2 31.1998 24.85 29.6331C22.2 27.8664 17.8166 27.8664 15.15 29.6331Z" stroke="#BA9375" stroke-width="2" stroke-linecap="round" stroke-linejoin="round"/>
</svg>
