<svg width="28" height="36" viewBox="0 0 28 36" fill="none" xmlns="http://www.w3.org/2000/svg">
<path d="M13.3515 24.5086H4.89962C4.79646 24.5086 4.7121 24.4241 4.7121 24.321V17.4554C4.7121 17.3522 4.79646 17.2695 4.89962 17.2695H13.4405C15.4833 17.2695 17.1352 18.9698 17.0571 21.0281C17.0383 21.539 16.9102 22.0205 16.6944 22.4534C16.0911 23.6771 14.7987 24.5086 13.3515 24.5086ZM19.1699 14.8782C20.7578 13.3638 21.7487 11.229 21.7487 8.86749C21.7487 8.23454 21.6783 7.61728 21.5424 7.02494C21.5112 6.88588 21.3845 6.79039 21.2423 6.79039H16.9445C16.7132 6.79039 16.5679 7.03278 16.6725 7.23895C16.9257 7.73753 17.0663 8.30337 17.0601 8.90182C17.0414 10.9024 15.355 12.487 13.3562 12.487H4.89962C4.79646 12.487 4.7121 12.4027 4.7121 12.2995V5.43389C4.7121 5.33072 4.79646 5.24794 4.89962 5.24794H7.12817C7.42512 5.24794 7.66579 5.00727 7.66579 4.71032V1.09704C7.66579 0.800089 7.42512 0.559423 7.12817 0.559423H0.561053C0.264102 0.559423 0.0234375 0.800089 0.0234375 1.09704V28.6595C0.0234375 28.9564 0.264102 29.1971 0.561053 29.1971H13.3108C17.4743 29.1971 21.0297 26.1214 21.6534 22.1314C21.7205 21.7016 21.7534 21.2593 21.7487 20.8108C21.7268 18.4791 20.7406 16.3739 19.1699 14.8782Z" fill="#BA9375"/>
<path d="M28 1.0892V20.8874C28 28.9282 21.4813 35.4468 13.4404 35.4468H0.537616C0.240664 35.4468 0 35.2062 0 34.9092V31.296C0 30.999 0.240664 30.7583 0.537616 30.7583H13.4404C18.5995 30.7583 22.8333 26.8028 23.2724 21.7563C23.2989 21.4704 23.3115 21.1797 23.3115 20.8874V5.46367C23.3115 5.34012 23.2115 5.24166 23.0895 5.24166H20.9157C20.9157 5.24323 20.9172 5.24323 20.9172 5.2448H11.6964V5.24793H9.74908C9.45213 5.24793 9.21146 5.00727 9.21146 4.71032V1.09704C9.21146 0.800087 9.45213 0.559422 9.74908 0.559422H10.343V0.553154H27.4624C27.7593 0.553154 28 0.793816 28 1.0892Z" fill="#C4AC90"/>
</svg>
